<?xml version="1.0" standalone="no"?>
<svg xmlns="http://www.w3.org/2000/svg" width="1120" height="523.84375"><g transform="translate(70,20)"><g class="x axis" transform="translate(0,400)" fill="none" font-size="10" font-family="sans-serif" text-anchor="middle"><path class="domain" stroke="#000" d="M0.5,6V0.5H1000.5V6"/><g class="tick" opacity="1" transform="translate(261.904761904762,0)"><line stroke="#000" y2="6"/><text fill="#000" y="9" dy="-0.5em" dx="-.8em" style="text-anchor: end;" transform="rotate(-90)">No (n=130)</text></g><g class="tick" opacity="1" transform="translate(738.0952380952381,0)"><line stroke="#000" y2="6"/><text fill="#000" y="9" dy="-0.5em" dx="-.8em" style="text-anchor: end;" transform="rotate(-90)">Yes (n=200)</text></g></g><g class="y axis" fill="none" font-size="10" font-family="sans-serif" text-anchor="end"><path class="domain" stroke="#000" d="M-6,400.5H0.5V0.5H-6"/><g class="tick" opacity="1" transform="translate(0,400.5)"><line stroke="#000" x2="-6"/><text fill="#000" x="-9" dy="0.32em">1.5</text></g><g class="tick" opacity="1" transform="translate(0,364.1363636363636)"><line stroke="#000" x2="-6"/><text fill="#000" x="-9" dy="0.32em">2.0</text></g><g class="tick" opacity="1" transform="translate(0,327.77272727272725)"><line stroke="#000" x2="-6"/><text fill="#000" x="-9" dy="0.32em">2.5</text></g><g class="tick" opacity="1" transform="translate(0,291.40909090909093)"><line stroke="#000" x2="-6"/><text fill="#000" x="-9" dy="0.32em">3.0</text></g><g class="tick" opacity="1" transform="translate(0,255.04545454545453)"><line stroke="#000" x2="-6"/><text fill="#000" x="-9" dy="0.32em">3.5</text></g><g class="tick" opacity="1" transform="translate(0,218.6818181818182)"><line stroke="#000" x2="-6"/><text fill="#000" x="-9" dy="0.32em">4.0</text></g><g class="tick" opacity="1" transform="translate(0,182.31818181818184)"><line stroke="#000" x2="-6"/><text fill="#000" x="-9" dy="0.32em">4.5</text></g><g class="tick" opacity="1" transform="translate(0,145.95454545454547)"><line stroke="#000" x2="-6"/><text fill="#000" x="-9" dy="0.32em">5.0</text></g><g class="tick" opacity="1" transform="translate(0,109.59090909090907)"><line stroke="#000" x2="-6"/><text fill="#000" x="-9" dy="0.32em">5.5</text></g><g class="tick" opacity="1" transform="translate(0,73.22727272727269)"><line stroke="#000" x2="-6"/><text fill="#000" x="-9" dy="0.32em">6.0</text></g><g class="tick" opacity="1" transform="translate(0,36.863636363636374)"><line stroke="#000" x2="-6"/><text fill="#000" x="-9" dy="0.32em">6.5</text></g><g class="tick" opacity="1" transform="translate(0,0.5)"><line stroke="#000" x2="-6"/><text fill="#000" x="-9" dy="0.32em">7.0</text></g></g><text class="x label" text-anchor="middle" transform="translate(500,493.84375)" style="font: 12px sans-serif;">parkinson_disease</text><text class="y label" text-anchor="middle" transform="translate(-50,200)rotate(-90)" style="font: 12px sans-serif;">shannon_entropy</text><line class="center" x1="261.904761904762" y1="317.38949903272726" x2="261.904761904762" y2="30.42132649454544" stroke-dasharray="2,2" stroke-width="1" stroke="black"/><g class="outlier" transform="translate(261.904761904762,0)"><circle r="4" stroke-width="1" stroke="black" stroke-opacity="0.3" fill="black" fill-opacity="0.33" cx="0" cy="345.4102969818182"/></g><g class="outlier" transform="translate(738.0952380952381,0)"><circle r="4" stroke-width="1" stroke="black" stroke-opacity="0.3" fill="black" fill-opacity="0.33" cx="0" cy="370.7699218690909"/><circle r="4" stroke-width="1" stroke="black" stroke-opacity="0.3" fill="black" fill-opacity="0.33" cx="0" cy="331.62151539636363"/></g><g class="whisker" transform="translate(154.76190476190484,0)"><line class="median" x1="0" y1="317.38949903272726" x2="214.28571428571428" y2="317.38949903272726" stroke-width="1" stroke="black"/><line class="median" x1="0" y1="30.42132649454544" x2="214.28571428571428" y2="30.42132649454544" stroke-width="1" stroke="black"/></g><line class="center" x1="738.0952380952381" y1="307.77220556363636" x2="738.0952380952381" y2="48.36784768000001" stroke-dasharray="2,2" stroke-width="1" stroke="black"/><rect class="box" x="47.619047619047706" y="116.80493323999997" width="428.57142857142856" height="85.77690143090913" fill="white" stroke-width="1" stroke="black"/><rect class="box" x="523.8095238095239" y="106.65440556181818" width="428.57142857142856" height="85.80865014727272" fill="white" stroke-width="1" stroke="black"/><line class="median" x1="47.619047619047706" y1="161.34526410181823" x2="476.19047619047626" y2="161.34526410181823" stroke-width="1" stroke="black"/><line class="median" x1="523.8095238095239" y1="150.85031329818182" x2="952.3809523809524" y2="150.85031329818182" stroke-width="1" stroke="black"/><g class="whisker" transform="translate(630.952380952381,0)"><line class="median" x1="0" y1="307.77220556363636" x2="214.28571428571428" y2="307.77220556363636" stroke-width="1" stroke="black"/><line class="median" x1="0" y1="48.36784768000001" x2="214.28571428571428" y2="48.36784768000001" stroke-width="1" stroke="black"/></g></g></svg>