<?xml version="1.0" standalone="no"?>
<svg xmlns="http://www.w3.org/2000/svg" width="233.3958282470703" height="400"><g class="legend" id="id15" transform="translate(0,360)" style="font: 10px sans-serif;"><rect width="18" height="18" x="0" style="fill: rgb(253, 192, 134);"/><text y="9" dy=".35em" text-anchor="start" x="24">k__Bacteria;p__Deferribacteres</text></g><g class="legend" id="id10" transform="translate(0,340)" style="font: 10px sans-serif;"><rect width="18" height="18" x="0" style="fill: rgb(190, 174, 212);"/><text y="9" dy=".35em" text-anchor="start" x="24">k__Bacteria;p__Planctomycetes</text></g><g class="legend" id="id16" transform="translate(0,320)" style="font: 10px sans-serif;"><rect width="18" height="18" x="0" style="fill: rgb(127, 201, 127);"/><text y="9" dy=".35em" text-anchor="start" x="24">k__Bacteria;p__Rhodothermaeota</text></g><g class="legend" id="id17" transform="translate(0,300)" style="font: 10px sans-serif;"><rect width="18" height="18" x="0" style="fill: rgb(102, 102, 102);"/><text y="9" dy=".35em" text-anchor="start" x="24">k__Bacteria;p__Spirochaetes</text></g><g class="legend" id="id11" transform="translate(0,280)" style="font: 10px sans-serif;"><rect width="18" height="18" x="0" style="fill: rgb(191, 91, 23);"/><text y="9" dy=".35em" text-anchor="start" x="24">k__Bacteria;p__Elusimicrobia</text></g><g class="legend" id="id9" transform="translate(0,260)" style="font: 10px sans-serif;"><rect width="18" height="18" x="0" style="fill: rgb(240, 2, 127);"/><text y="9" dy=".35em" text-anchor="start" x="24">k__Bacteria;p__Cyanobacteria</text></g><g class="legend" id="id6" transform="translate(0,240)" style="font: 10px sans-serif;"><rect width="18" height="18" x="0" style="fill: rgb(56, 108, 176);"/><text y="9" dy=".35em" text-anchor="start" x="24">Unassigned;__</text></g><g class="legend" id="id18" transform="translate(0,220)" style="font: 10px sans-serif;"><rect width="18" height="18" x="0" style="fill: rgb(255, 255, 153);"/><text y="9" dy=".35em" text-anchor="start" x="24">k__Bacteria;p__Tenericutes</text></g><g class="legend" id="id12" transform="translate(0,200)" style="font: 10px sans-serif;"><rect width="18" height="18" x="0" style="fill: rgb(253, 192, 134);"/><text y="9" dy=".35em" text-anchor="start" x="24">k__Archaea;p__Candidatus Thermoplasmatota</text></g><g class="legend" id="id13" transform="translate(0,180)" style="font: 10px sans-serif;"><rect width="18" height="18" x="0" style="fill: rgb(190, 174, 212);"/><text y="9" dy=".35em" text-anchor="start" x="24">k__Bacteria;p__Lentisphaerae</text></g><g class="legend" id="id8" transform="translate(0,160)" style="font: 10px sans-serif;"><rect width="18" height="18" x="0" style="fill: rgb(127, 201, 127);"/><text y="9" dy=".35em" text-anchor="start" x="24">k__Archaea;p__Euryarchaeota</text></g><g class="legend" id="id5" transform="translate(0,140)" style="font: 10px sans-serif;"><rect width="18" height="18" x="0" style="fill: rgb(102, 102, 102);"/><text y="9" dy=".35em" text-anchor="start" x="24">k__Bacteria;p__Synergistetes</text></g><g class="legend" id="id14" transform="translate(0,120)" style="font: 10px sans-serif;"><rect width="18" height="18" x="0" style="fill: rgb(191, 91, 23);"/><text y="9" dy=".35em" text-anchor="start" x="24">k__Bacteria;p__Fusobacteria</text></g><g class="legend" id="id0" transform="translate(0,100)" style="font: 10px sans-serif;"><rect width="18" height="18" x="0" style="fill: rgb(240, 2, 127);"/><text y="9" dy=".35em" text-anchor="start" x="24">k__Bacteria;__</text></g><g class="legend" id="id4" transform="translate(0,80)" style="font: 10px sans-serif;"><rect width="18" height="18" x="0" style="fill: rgb(56, 108, 176);"/><text y="9" dy=".35em" text-anchor="start" x="24">k__Bacteria;p__Actinobacteria</text></g><g class="legend" id="id7" transform="translate(0,60)" style="font: 10px sans-serif;"><rect width="18" height="18" x="0" style="fill: rgb(255, 255, 153);"/><text y="9" dy=".35em" text-anchor="start" x="24">k__Bacteria;p__Verrucomicrobia</text></g><g class="legend" id="id3" transform="translate(0,40)" style="font: 10px sans-serif;"><rect width="18" height="18" x="0" style="fill: rgb(253, 192, 134);"/><text y="9" dy=".35em" text-anchor="start" x="24">k__Bacteria;p__Proteobacteria</text></g><g class="legend" id="id2" transform="translate(0,20)" style="font: 10px sans-serif;"><rect width="18" height="18" x="0" style="fill: rgb(190, 174, 212);"/><text y="9" dy=".35em" text-anchor="start" x="24">k__Bacteria;p__Bacteroidetes</text></g><g class="legend" id="id1" transform="translate(0,0)" style="font: 10px sans-serif;"><rect width="18" height="18" x="0" style="fill: rgb(127, 201, 127);"/><text y="9" dy=".35em" text-anchor="start" x="24">k__Bacteria;p__Firmicutes</text></g></svg>